<svg xmlns="http://www.w3.org/2000/svg" viewBox="0 0 900 520" width="900" height="520">
<defs>
  <clipPath id="rc"><rect width="900" height="520" rx="12"/></clipPath>
  <linearGradient id="trendFill" x1="0" y1="0" x2="0" y2="1">
    <stop offset="0%" stop-color="#3b82f6" stop-opacity=".22"/>
    <stop offset="100%" stop-color="#3b82f6" stop-opacity="0"/>
  </linearGradient>
  <linearGradient id="awsG" x1="0" y1="0" x2="1" y2="0">
    <stop offset="0%" stop-color="#f97316"/><stop offset="100%" stop-color="#fb923c"/>
  </linearGradient>
  <linearGradient id="azG" x1="0" y1="0" x2="1" y2="0">
    <stop offset="0%" stop-color="#3b82f6"/><stop offset="100%" stop-color="#60a5fa"/>
  </linearGradient>
  <linearGradient id="gcpG" x1="0" y1="0" x2="1" y2="0">
    <stop offset="0%" stop-color="#22c55e"/><stop offset="100%" stop-color="#4ade80"/>
  </linearGradient>
  <linearGradient id="ociG" x1="0" y1="0" x2="1" y2="0">
    <stop offset="0%" stop-color="#a855f7"/><stop offset="100%" stop-color="#c084fc"/>
  </linearGradient>
  <linearGradient id="aiG" x1="0" y1="0" x2="1" y2="0">
    <stop offset="0%" stop-color="#6366f1"/><stop offset="100%" stop-color="#8b5cf6"/>
  </linearGradient>
  <filter id="cs">
    <feDropShadow dx="0" dy="1" stdDeviation="2.5" flood-color="#0f172a" flood-opacity=".07"/>
  </filter>
</defs>
<style>
  text { font-family: system-ui, -apple-system, BlinkMacSystemFont, "Segoe UI", sans-serif }
  .s1 { animation: fa1 24s linear infinite }
  .s2 { animation: fa2 24s linear infinite }
  .s3 { animation: fa3 24s linear infinite }
  .s4 { animation: fa4 24s linear infinite }
  @keyframes fa1 { 0%,100%{opacity:1} 22%{opacity:1} 25%{opacity:0} 98%{opacity:0} }
  @keyframes fa2 { 0%,100%{opacity:0} 25%{opacity:0} 27%{opacity:1} 48%{opacity:1} 50%{opacity:0} }
  @keyframes fa3 { 0%,100%{opacity:0} 50%{opacity:0} 52%{opacity:1} 73%{opacity:1} 75%{opacity:0} }
  @keyframes fa4 { 0%,100%{opacity:0} 75%{opacity:0} 77%{opacity:1} 98%{opacity:1} }
  .pk { animation: pk 2s ease-in-out infinite }
  @keyframes pk { 0%,100%{opacity:1} 50%{opacity:.4} }
  .bl { animation: bl 1s step-end infinite }
  @keyframes bl { 0%,100%{opacity:1} 50%{opacity:0} }
</style>

<g clip-path="url(#rc)">

<!-- ─── BACKGROUND ─── -->
<rect width="900" height="520" fill="#f8fafc"/>

<!-- ─── SIDEBAR ─── -->
<rect width="178" height="520" fill="#0f172a"/>
<!-- Logo accent + text -->
<rect x="0" y="16" width="4" height="22" rx="2" fill="#3b82f6"/>
<text x="16" y="29" fill="white" font-size="15" font-weight="700" letter-spacing="-.3">OptiOra</text>
<text x="16" y="43" fill="#475569" font-size="9.5">Multi-cloud FinOps</text>
<line x1="12" y1="55" x2="166" y2="55" stroke="#1e293b" stroke-width="1"/>

<!-- Nav active highlights (animated) -->
<rect class="s1" x="8" y="63"  width="162" height="34" rx="6" fill="#1e40af"/>
<rect class="s2" x="8" y="104" width="162" height="34" rx="6" fill="#1e40af"/>
<rect class="s3" x="8" y="145" width="162" height="34" rx="6" fill="#1e40af"/>
<rect class="s4" x="8" y="186" width="162" height="34" rx="6" fill="#1e40af"/>

<!-- Nav dots -->
<circle cx="22" cy="80"  r="3.5" fill="#60a5fa"/>
<circle cx="22" cy="121" r="3.5" fill="#f87171"/>
<circle cx="22" cy="162" r="3.5" fill="#34d399"/>
<circle cx="22" cy="203" r="3.5" fill="#a78bfa"/>
<circle cx="22" cy="244" r="3.5" fill="#64748b"/>

<!-- Nav labels (dim always) -->
<text x="33" y="84"  fill="#64748b" font-size="12">Overview</text>
<text x="33" y="125" fill="#64748b" font-size="12">Anomalies</text>
<text x="33" y="166" fill="#64748b" font-size="12">Recommendations</text>
<text x="33" y="207" fill="#64748b" font-size="12">Operations</text>
<text x="33" y="248" fill="#4b5563" font-size="12">Settings</text>

<!-- Nav labels (white, scene-synced) -->
<text class="s1" x="33" y="84"  fill="white" font-size="12">Overview</text>
<text class="s2" x="33" y="125" fill="white" font-size="12">Anomalies</text>
<text class="s3" x="33" y="166" fill="white" font-size="12">Recommendations</text>
<text class="s4" x="33" y="207" fill="white" font-size="12">Operations</text>

<line x1="12" y1="266" x2="166" y2="266" stroke="#1e293b" stroke-width="1"/>

<!-- Provider status -->
<text x="16" y="284" fill="#475569" font-size="9" font-weight="600" letter-spacing=".8">CONNECTED PROVIDERS</text>
<circle cx="22" cy="303" r="5" fill="#f97316"/>
<circle cx="22" cy="303" r="2.5" fill="white"/>
<text x="32" y="307" fill="#94a3b8" font-size="11">AWS</text>
<circle cx="90" cy="303" r="5" fill="#3b82f6"/>
<circle cx="90" cy="303" r="2.5" fill="white"/>
<text x="100" y="307" fill="#94a3b8" font-size="11">Azure</text>
<circle cx="22" cy="323" r="5" fill="#22c55e"/>
<circle cx="22" cy="323" r="2.5" fill="white"/>
<text x="32" y="327" fill="#94a3b8" font-size="11">GCP</text>
<circle cx="90" cy="323" r="5" fill="#a855f7"/>
<circle cx="90" cy="323" r="2.5" fill="white"/>
<text x="100" y="327" fill="#94a3b8" font-size="11">OCI</text>

<line x1="12" y1="344" x2="166" y2="344" stroke="#1e293b" stroke-width="1"/>
<text x="16" y="360" fill="#374151" font-size="10">4 providers active</text>
<text x="16" y="374" fill="#374151" font-size="10">Last sync: 2h ago</text>
<text x="16" y="388" fill="#374151" font-size="10">Region: af-jhb-1</text>

<!-- ─── HEADER ─── -->
<rect x="178" y="0" width="722" height="50" fill="white"/>
<line x1="178" y1="50" x2="900" y2="50" stroke="#e2e8f0" stroke-width="1"/>

<!-- Scene titles (animated) -->
<text class="s1" x="196" y="22" fill="#0f172a" font-size="13" font-weight="600">Multi-Cloud Cost Overview</text>
<text class="s2" x="196" y="22" fill="#0f172a" font-size="13" font-weight="600">Anomaly Detection</text>
<text class="s3" x="196" y="22" fill="#0f172a" font-size="13" font-weight="600">Optimization Recommendations</text>
<text class="s4" x="196" y="22" fill="#0f172a" font-size="13" font-weight="600">Operations Center</text>

<!-- Scene subtitles -->
<text class="s1" x="196" y="39" fill="#94a3b8" font-size="10">Apr 2026 · 4 providers · live data</text>
<text class="s2" x="196" y="39" fill="#94a3b8" font-size="10">Last 30 days · 2 anomalies detected</text>
<text class="s3" x="196" y="39" fill="#94a3b8" font-size="10">3 items · $15,900/yr potential savings</text>
<text class="s4" x="196" y="39" fill="#94a3b8" font-size="10">Scan history, diffs, alerts, and audit logs</text>

<!-- Date badge -->
<rect x="818" y="13" width="64" height="24" rx="6" fill="#f1f5f9"/>
<text x="850" y="28" fill="#475569" font-size="10" text-anchor="middle" font-weight="500">Apr 2026</text>


<!-- ════════════════════════════════════════════════════ -->
<!--  SCENE 1 — COST OVERVIEW                           -->
<!-- ════════════════════════════════════════════════════ -->
<g class="s1">

<!-- Metric cards (y=66 to y=150) -->

<!-- Card 1: Total Spend -->
<rect x="196" y="66" width="158" height="82" rx="8" fill="white" filter="url(#cs)"/>
<rect x="196" y="66" width="4"   height="82" rx="2" fill="#3b82f6"/>
<text x="210" y="82"  fill="#64748b" font-size="9"  font-weight="600" letter-spacing=".4">TOTAL SPEND</text>
<text x="210" y="106" fill="#0f172a" font-size="22" font-weight="700">$47,230</text>
<text x="210" y="121" fill="#ef4444" font-size="10">↑ 8.2% vs last month</text>
<text x="210" y="135" fill="#94a3b8" font-size="9">Apr 1–14, 2026</text>

<!-- Card 2: Savings -->
<rect x="366" y="66" width="158" height="82" rx="8" fill="white" filter="url(#cs)"/>
<rect x="366" y="66" width="4"   height="82" rx="2" fill="#22c55e"/>
<text x="380" y="82"  fill="#64748b" font-size="9"  font-weight="600" letter-spacing=".4">SAVINGS FOUND</text>
<text x="380" y="106" fill="#0f172a" font-size="22" font-weight="700">$14,200</text>
<text x="380" y="121" fill="#22c55e" font-size="10">↓ per year potential</text>
<text x="380" y="135" fill="#94a3b8" font-size="9">3 optimizations</text>

<!-- Card 3: Anomalies -->
<rect x="536" y="66" width="158" height="82" rx="8" fill="white" filter="url(#cs)"/>
<rect x="536" y="66" width="4"   height="82" rx="2" fill="#f59e0b"/>
<text x="550" y="82"  fill="#64748b" font-size="9"  font-weight="600" letter-spacing=".4">ANOMALIES</text>
<text x="550" y="106" fill="#0f172a" font-size="22" font-weight="700">3</text>
<text x="550" y="121" fill="#f59e0b" font-size="10">2 high · 1 medium</text>
<text x="550" y="135" fill="#94a3b8" font-size="9">Active alerts</text>

<!-- Card 4: Providers -->
<rect x="706" y="66" width="158" height="82" rx="8" fill="white" filter="url(#cs)"/>
<rect x="706" y="66" width="4"   height="82" rx="2" fill="#a855f7"/>
<text x="720" y="82"  fill="#64748b" font-size="9"  font-weight="600" letter-spacing=".4">PROVIDERS</text>
<text x="720" y="106" fill="#0f172a" font-size="22" font-weight="700">4</text>
<text x="720" y="121" fill="#22c55e" font-size="10">All connected ✓</text>
<text x="720" y="135" fill="#94a3b8" font-size="9">AWS · Azure · GCP · OCI</text>

<!-- Cost by Provider -->
<text x="196" y="168" fill="#374151" font-size="11" font-weight="600">Cost by Provider</text>

<!-- AWS -->
<text x="196" y="196" fill="#64748b" font-size="11">AWS</text>
<rect x="240" y="181" width="560" height="22" rx="4" fill="#f1f5f9"/>
<rect x="240" y="181" height="22" rx="4" fill="url(#awsG)">
  <animate attributeName="width" from="0" to="235" dur=".9s" fill="freeze" calcMode="ease"/>
</rect>
<text x="481" y="196" fill="#ea6c07" font-size="10" font-weight="600">$19,837 · 42%</text>

<!-- Azure -->
<text x="196" y="228" fill="#64748b" font-size="11">Azure</text>
<rect x="240" y="213" width="560" height="22" rx="4" fill="#f1f5f9"/>
<rect x="240" y="213" height="22" rx="4" fill="url(#azG)">
  <animate attributeName="width" from="0" to="157" dur=".9s" fill="freeze" calcMode="ease"/>
</rect>
<text x="403" y="228" fill="#1d6edb" font-size="10" font-weight="600">$13,224 · 28%</text>

<!-- GCP -->
<text x="196" y="260" fill="#64748b" font-size="11">GCP</text>
<rect x="240" y="245" width="560" height="22" rx="4" fill="#f1f5f9"/>
<rect x="240" y="245" height="22" rx="4" fill="url(#gcpG)">
  <animate attributeName="width" from="0" to="101" dur=".9s" fill="freeze" calcMode="ease"/>
</rect>
<text x="347" y="260" fill="#15803d" font-size="10" font-weight="600">$8,502 · 18%</text>

<!-- OCI -->
<text x="196" y="292" fill="#64748b" font-size="11">OCI</text>
<rect x="240" y="277" width="560" height="22" rx="4" fill="#f1f5f9"/>
<rect x="240" y="277" height="22" rx="4" fill="url(#ociG)">
  <animate attributeName="width" from="0" to="67" dur=".9s" fill="freeze" calcMode="ease"/>
</rect>
<text x="313" y="292" fill="#7e22ce" font-size="10" font-weight="600">$5,667 · 12%</text>

<!-- 30-day Trend chart -->
<text x="196" y="320" fill="#374151" font-size="11" font-weight="600">30-Day Spend Trend</text>
<rect x="196" y="330" width="678" height="130" rx="8" fill="white" filter="url(#cs)"/>

<!-- Grid lines -->
<line x1="244" y1="350" x2="856" y2="350" stroke="#f1f5f9" stroke-width="1"/>
<line x1="244" y1="373" x2="856" y2="373" stroke="#f1f5f9" stroke-width="1"/>
<line x1="244" y1="396" x2="856" y2="396" stroke="#f1f5f9" stroke-width="1"/>
<line x1="244" y1="419" x2="856" y2="419" stroke="#f1f5f9" stroke-width="1"/>
<line x1="244" y1="442" x2="856" y2="442" stroke="#f1f5f9" stroke-width="1"/>

<!-- Y axis labels -->
<text x="204" y="354" fill="#94a3b8" font-size="8.5">$50k</text>
<text x="204" y="377" fill="#94a3b8" font-size="8.5">$45k</text>
<text x="204" y="400" fill="#94a3b8" font-size="8.5">$40k</text>
<text x="204" y="423" fill="#94a3b8" font-size="8.5">$35k</text>
<text x="204" y="446" fill="#94a3b8" font-size="8.5">$30k</text>

<!-- Area fill: Jan(270,427) Feb(420,408) Mar(570,395) Apr(720,380) -->
<path d="M270,427 C340,423 370,414 420,408 C475,402 520,399 570,395 C625,391 670,385 720,380 L720,450 L270,450 Z"
      fill="url(#trendFill)"/>

<!-- Trend line -->
<path d="M270,427 C340,423 370,414 420,408 C475,402 520,399 570,395 C625,391 670,385 720,380"
      fill="none" stroke="#3b82f6" stroke-width="2.5" stroke-linecap="round"
      stroke-dasharray="600" stroke-dashoffset="600">
  <animate attributeName="stroke-dashoffset" from="600" to="0" dur="1.2s" fill="freeze" begin=".1s" calcMode="ease"/>
</path>

<!-- Data points -->
<circle cx="270" cy="427" r="4" fill="white" stroke="#93c5fd" stroke-width="2"/>
<circle cx="420" cy="408" r="4" fill="white" stroke="#93c5fd" stroke-width="2"/>
<circle cx="570" cy="395" r="4" fill="white" stroke="#3b82f6" stroke-width="2"/>
<circle cx="720" cy="380" r="5" fill="#3b82f6" stroke="white" stroke-width="2"/>

<!-- Current value tooltip -->
<rect x="700" y="362" width="56" height="17" rx="4" fill="#3b82f6"/>
<text x="728" y="374" fill="white" font-size="9" font-weight="600" text-anchor="middle">$47,230</text>

<!-- Month labels -->
<text x="270" y="466" fill="#94a3b8" font-size="10" text-anchor="middle">Jan</text>
<text x="420" y="466" fill="#94a3b8" font-size="10" text-anchor="middle">Feb</text>
<text x="570" y="466" fill="#94a3b8" font-size="10" text-anchor="middle">Mar</text>
<text x="720" y="466" fill="#3b82f6" font-size="10" font-weight="600" text-anchor="middle">Apr ▲</text>

</g><!-- end scene 1 -->


<!-- ════════════════════════════════════════════════════ -->
<!--  SCENE 2 — ANOMALY DETECTION                       -->
<!-- ════════════════════════════════════════════════════ -->
<g class="s2">

<!-- Card 1: EC2 HIGH -->
<rect x="196" y="66" width="678" height="118" rx="8" fill="white" filter="url(#cs)"/>
<rect x="196" y="66" width="4"   height="118" rx="2" fill="#ef4444"/>
<!-- Severity badge -->
<rect x="212" y="76" width="94" height="18" rx="4" fill="#fef2f2"/>
<text x="259" y="88" fill="#ef4444" font-size="9" font-weight="700" text-anchor="middle">HIGH SEVERITY</text>
<circle class="pk" cx="310" cy="85" r="4" fill="#ef4444"/>
<!-- Provider tag -->
<rect x="316" y="76" width="38" height="18" rx="4" fill="#fff7ed"/>
<text x="335" y="88" fill="#f97316" font-size="9" font-weight="600" text-anchor="middle">AWS</text>
<!-- Title -->
<text x="212" y="113" fill="#0f172a" font-size="14" font-weight="600">EC2 — Compute Instances</text>
<!-- Stats -->
<text x="212" y="133" fill="#64748b" font-size="11">Baseline: </text>
<text x="264" y="133" fill="#374151" font-size="11" font-weight="600">$150/mo</text>
<text x="340" y="133" fill="#64748b" font-size="11">→  Actual: </text>
<text x="412" y="133" fill="#ef4444" font-size="12" font-weight="700">$450/mo</text>
<rect x="484" y="120" width="58" height="20" rx="5" fill="#fee2e2"/>
<text x="513" y="133" fill="#ef4444" font-size="10" font-weight="700" text-anchor="middle">+200%</text>
<!-- Cause + action -->
<text x="212" y="165" fill="#94a3b8" font-size="10">Spike in m5.xlarge instance usage · </text>
<text x="434" y="165" fill="#3b82f6" font-size="10">Review auto-scaling policies →</text>

<!-- Card 2: S3 MEDIUM -->
<rect x="196" y="200" width="678" height="118" rx="8" fill="white" filter="url(#cs)"/>
<rect x="196" y="200" width="4"   height="118" rx="2" fill="#f59e0b"/>
<!-- Badge -->
<rect x="212" y="210" width="76" height="18" rx="4" fill="#fffbeb"/>
<text x="250" y="222" fill="#d97706" font-size="9" font-weight="700" text-anchor="middle">MEDIUM</text>
<rect x="296" y="210" width="38" height="18" rx="4" fill="#fff7ed"/>
<text x="315" y="222" fill="#f97316" font-size="9" font-weight="600" text-anchor="middle">AWS</text>
<!-- Title -->
<text x="212" y="247" fill="#0f172a" font-size="14" font-weight="600">S3 — Object Storage</text>
<!-- Stats -->
<text x="212" y="267" fill="#64748b" font-size="11">Baseline: </text>
<text x="264" y="267" fill="#374151" font-size="11" font-weight="600">$50/mo</text>
<text x="326" y="267" fill="#64748b" font-size="11">→  Actual: </text>
<text x="397" y="267" fill="#f59e0b" font-size="12" font-weight="700">$125/mo</text>
<rect x="464" y="254" width="58" height="20" rx="5" fill="#fef3c7"/>
<text x="493" y="267" fill="#d97706" font-size="10" font-weight="700" text-anchor="middle">+150%</text>
<text x="212" y="299" fill="#94a3b8" font-size="10">Data transfer out increased week-over-week · </text>
<text x="470" y="299" fill="#3b82f6" font-size="10">Configure CloudFront →</text>

<!-- Impact summary box -->
<rect x="196" y="336" width="678" height="64" rx="8" fill="#fef2f2" filter="url(#cs)"/>
<text x="216" y="360" fill="#991b1b" font-size="12" font-weight="600">Estimated monthly impact:</text>
<text x="408" y="360" fill="#ef4444" font-size="14" font-weight="700">+$375</text>
<text x="216" y="382" fill="#b91c1c" font-size="10">2 anomalies detected in the last 7 days based on week-over-month rate comparison</text>

<!-- Remaining info at bottom -->
<text x="196" y="422" fill="#94a3b8" font-size="10">Detection method: weekly vs. monthly daily-rate comparison · Sensitivity: 5%</text>

</g><!-- end scene 2 -->


<!-- ════════════════════════════════════════════════════ -->
<!--  SCENE 3 — RECOMMENDATIONS                         -->
<!-- ════════════════════════════════════════════════════ -->
<g class="s3">

<!-- Card 1: Reserved Instances -->
<rect x="196" y="66" width="678" height="96" rx="8" fill="white" filter="url(#cs)"/>
<rect x="196" y="66" width="4"   height="96" rx="2" fill="#3b82f6"/>
<rect x="212" y="76" width="34" height="18" rx="4" fill="#eff6ff"/>
<text x="229" y="88" fill="#1d4ed8" font-size="9" font-weight="700" text-anchor="middle">HIGH</text>
<rect x="254" y="76" width="38" height="18" rx="4" fill="#fff7ed"/>
<text x="273" y="88" fill="#f97316" font-size="9" font-weight="600" text-anchor="middle">AWS</text>
<text x="212" y="114" fill="#0f172a" font-size="13" font-weight="600">Purchase Reserved Instances for steady EC2 workloads</text>
<text x="212" y="133" fill="#64748b" font-size="10">Increase Savings Plans or RI coverage · Payback: 3 months</text>
<text x="212" y="150" fill="#94a3b8" font-size="10">Current annual spend: $95,000</text>
<text x="788" y="122" fill="#22c55e" font-size="18" font-weight="700" text-anchor="end">$8,400</text>
<text x="788" y="138" fill="#94a3b8" font-size="9" text-anchor="end">per year</text>

<!-- Card 2: S3 Lifecycle -->
<rect x="196" y="174" width="678" height="96" rx="8" fill="white" filter="url(#cs)"/>
<rect x="196" y="174" width="4"   height="96" rx="2" fill="#22c55e"/>
<rect x="212" y="184" width="52" height="18" rx="4" fill="#f0fdf4"/>
<text x="238" y="196" fill="#15803d" font-size="9" font-weight="700" text-anchor="middle">MEDIUM</text>
<rect x="272" y="184" width="38" height="18" rx="4" fill="#fff7ed"/>
<text x="291" y="196" fill="#f97316" font-size="9" font-weight="600" text-anchor="middle">AWS</text>
<text x="212" y="222" fill="#0f172a" font-size="13" font-weight="600">Enable S3 lifecycle policies for cold storage transition</text>
<text x="212" y="241" fill="#64748b" font-size="10">Move infrequently accessed data to Glacier · Effort: low</text>
<text x="212" y="258" fill="#94a3b8" font-size="10">Storage monthly cost: $1,200</text>
<text x="788" y="230" fill="#22c55e" font-size="18" font-weight="700" text-anchor="end">$4,800</text>
<text x="788" y="246" fill="#94a3b8" font-size="9" text-anchor="end">per year</text>

<!-- Card 3: EBS Cleanup -->
<rect x="196" y="282" width="678" height="96" rx="8" fill="white" filter="url(#cs)"/>
<rect x="196" y="282" width="4"   height="96" rx="2" fill="#f59e0b"/>
<rect x="212" y="292" width="52" height="18" rx="4" fill="#fffbeb"/>
<text x="238" y="304" fill="#b45309" font-size="9" font-weight="700" text-anchor="middle">MEDIUM</text>
<rect x="272" y="292" width="38" height="18" rx="4" fill="#fff7ed"/>
<text x="291" y="304" fill="#f97316" font-size="9" font-weight="600" text-anchor="middle">AWS</text>
<text x="212" y="330" fill="#0f172a" font-size="13" font-weight="600">Delete 12 unattached EBS volumes</text>
<text x="212" y="349" fill="#64748b" font-size="10">Volumes unattached and not in use · Effort: low · Real resource data</text>
<text x="212" y="366" fill="#94a3b8" font-size="10">~$0.10/GB/month · identified by live EC2 scan</text>
<text x="788" y="338" fill="#22c55e" font-size="18" font-weight="700" text-anchor="end">$2,700</text>
<text x="788" y="354" fill="#94a3b8" font-size="9" text-anchor="end">per year</text>

<!-- Total savings banner -->
<rect x="196" y="392" width="678" height="54" rx="8" fill="#f0fdf4" filter="url(#cs)"/>
<text x="216" y="415" fill="#15803d" font-size="12" font-weight="600">Total potential annual savings identified:</text>
<text x="596" y="418" fill="#16a34a" font-size="20" font-weight="700">$15,900</text>
<text x="216" y="434" fill="#64748b" font-size="10">Calculated from live provider cost data · sorted by savings potential</text>

</g><!-- end scene 3 -->


<!-- ════════════════════════════════════════════════════ -->
<!--  SCENE 4 — OPERATIONS CENTER                       -->
<!-- ════════════════════════════════════════════════════ -->
<g class="s4">

<!-- Scheduler status -->
<rect x="196" y="60" width="220" height="24" rx="6" fill="#ecfeff"/>
<text x="306" y="75" fill="#0e7490" font-size="10" font-weight="600" text-anchor="middle">Scheduler enabled · cadence: daily</text>

<!-- Scan history panel -->
<rect x="196" y="94" width="430" height="176" rx="8" fill="white" filter="url(#cs)"/>
<text x="212" y="116" fill="#0f172a" font-size="12" font-weight="600">Recent Scan History</text>
<line x1="212" y1="124" x2="610" y2="124" stroke="#e2e8f0" stroke-width="1"/>
<text x="212" y="142" fill="#94a3b8" font-size="9">SCAN ID</text>
<text x="376" y="142" fill="#94a3b8" font-size="9">STATUS</text>
<text x="454" y="142" fill="#94a3b8" font-size="9">PROVIDERS</text>
<text x="562" y="142" fill="#94a3b8" font-size="9" text-anchor="end">SAVINGS</text>

<text x="212" y="162" fill="#334155" font-size="10">scan_org-1_1776269101</text>
<rect x="368" y="150" width="58" height="16" rx="4" fill="#dcfce7"/>
<text x="397" y="161" fill="#166534" font-size="9" text-anchor="middle">completed</text>
<text x="454" y="162" fill="#475569" font-size="10">aws, azure, gcp, oci</text>
<text x="562" y="162" fill="#16a34a" font-size="10" text-anchor="end">$1,178</text>

<text x="212" y="184" fill="#334155" font-size="10">scan_org-1_1776182701</text>
<rect x="368" y="172" width="58" height="16" rx="4" fill="#dcfce7"/>
<text x="397" y="183" fill="#166534" font-size="9" text-anchor="middle">completed</text>
<text x="454" y="184" fill="#475569" font-size="10">aws, azure, gcp, oci</text>
<text x="562" y="184" fill="#16a34a" font-size="10" text-anchor="end">$1,090</text>

<text x="212" y="206" fill="#334155" font-size="10">scan_org-1_1776096301</text>
<rect x="368" y="194" width="50" height="16" rx="4" fill="#fef9c3"/>
<text x="393" y="205" fill="#a16207" font-size="9" text-anchor="middle">running</text>
<text x="454" y="206" fill="#475569" font-size="10">aws, azure</text>
<text x="562" y="206" fill="#94a3b8" font-size="10" text-anchor="end">pending</text>

<text x="212" y="238" fill="#64748b" font-size="10">Export history CSV from Operations page</text>
<rect x="464" y="224" width="146" height="26" rx="6" fill="#eff6ff"/>
<text x="537" y="241" fill="#1d4ed8" font-size="10" font-weight="600" text-anchor="middle">Download history CSV</text>

<!-- Diff panel -->
<rect x="642" y="94" width="232" height="176" rx="8" fill="white" filter="url(#cs)"/>
<text x="658" y="116" fill="#0f172a" font-size="12" font-weight="600">Latest Diff</text>
<line x1="658" y1="124" x2="858" y2="124" stroke="#e2e8f0" stroke-width="1"/>
<text x="658" y="143" fill="#94a3b8" font-size="9">Current</text>
<text x="730" y="143" fill="#94a3b8" font-size="9">Previous</text>
<text x="812" y="143" fill="#94a3b8" font-size="9">Delta</text>
<text x="658" y="161" fill="#0f172a" font-size="11" font-weight="600">$47,230</text>
<text x="730" y="161" fill="#0f172a" font-size="11" font-weight="600">$45,941</text>
<text x="812" y="161" fill="#dc2626" font-size="11" font-weight="700">+$1,289</text>

<text x="658" y="185" fill="#64748b" font-size="10">AWS</text>
<text x="770" y="185" fill="#dc2626" font-size="10" text-anchor="end">+$625</text>
<text x="658" y="203" fill="#64748b" font-size="10">Azure</text>
<text x="770" y="203" fill="#dc2626" font-size="10" text-anchor="end">+$381</text>
<text x="658" y="221" fill="#64748b" font-size="10">GCP</text>
<text x="770" y="221" fill="#dc2626" font-size="10" text-anchor="end">+$208</text>
<text x="658" y="239" fill="#64748b" font-size="10">OCI</text>
<text x="770" y="239" fill="#dc2626" font-size="10" text-anchor="end">+$75</text>

<rect x="658" y="246" width="200" height="16" rx="4" fill="#fef2f2"/>
<text x="758" y="257" fill="#b91c1c" font-size="9" text-anchor="middle">Cost change since previous snapshot</text>

<!-- Alerts panel -->
<rect x="196" y="286" width="334" height="154" rx="8" fill="white" filter="url(#cs)"/>
<text x="212" y="308" fill="#0f172a" font-size="12" font-weight="600">Alerts</text>
<line x1="212" y1="316" x2="514" y2="316" stroke="#e2e8f0" stroke-width="1"/>

<rect x="212" y="328" width="302" height="42" rx="6" fill="#fef2f2"/>
<text x="224" y="344" fill="#991b1b" font-size="10" font-weight="600">budget.threshold.breach</text>
<text x="224" y="360" fill="#b91c1c" font-size="9">AWS spend exceeded warning threshold (+12%)</text>

<rect x="212" y="376" width="302" height="42" rx="6" fill="#fff7ed"/>
<text x="224" y="392" fill="#9a3412" font-size="10" font-weight="600">anomaly.detected</text>
<text x="224" y="408" fill="#b45309" font-size="9">EC2 usage spike detected in us-east-1</text>

<!-- Audit panel -->
<rect x="540" y="286" width="334" height="154" rx="8" fill="white" filter="url(#cs)"/>
<text x="556" y="308" fill="#0f172a" font-size="12" font-weight="600">Audit Trail</text>
<line x1="556" y1="316" x2="858" y2="316" stroke="#e2e8f0" stroke-width="1"/>

<circle cx="564" cy="336" r="3.5" fill="#3b82f6"/>
<text x="576" y="340" fill="#334155" font-size="10">scan.schedule.triggered · 08:00 UTC</text>
<circle cx="564" cy="358" r="3.5" fill="#16a34a"/>
<text x="576" y="362" fill="#334155" font-size="10">scan.completed · scan_org-1_1776269101</text>
<circle cx="564" cy="380" r="3.5" fill="#f59e0b"/>
<text x="576" y="384" fill="#334155" font-size="10">alert.acknowledge · alert_event 224</text>
<circle cx="564" cy="402" r="3.5" fill="#0ea5e9"/>
<text x="576" y="406" fill="#334155" font-size="10">credentials.added · provider azure</text>

<text x="196" y="458" fill="#94a3b8" font-size="9">Operations dashboard now includes scan history browser, per-scan diffs, alerts, and audit logs.</text>

</g><!-- end scene 4 -->

</g><!-- end clip-path -->

<!-- Outer border overlay -->
<rect width="900" height="520" rx="12" fill="none" stroke="#cbd5e1" stroke-width="1.5"/>
</svg>
