<svg xmlns="http://www.w3.org/2000/svg" viewBox="0 0 900 520" width="900" height="520">
<defs>
  <clipPath id="frame">
    <rect width="900" height="520" rx="18"/>
  </clipPath>
  <linearGradient id="shellBg" x1="0" y1="0" x2="1" y2="1">
    <stop offset="0%" stop-color="#f8fafc"/>
    <stop offset="60%" stop-color="#eff6ff"/>
    <stop offset="100%" stop-color="#ecfeff"/>
  </linearGradient>
  <linearGradient id="sidebarBg" x1="0" y1="0" x2="0" y2="1">
    <stop offset="0%" stop-color="#0f172a"/>
    <stop offset="100%" stop-color="#111827"/>
  </linearGradient>
  <linearGradient id="heroGlow" x1="0" y1="0" x2="1" y2="1">
    <stop offset="0%" stop-color="#38bdf8" stop-opacity=".25"/>
    <stop offset="100%" stop-color="#14b8a6" stop-opacity=".1"/>
  </linearGradient>
  <linearGradient id="csvPill" x1="0" y1="0" x2="1" y2="0">
    <stop offset="0%" stop-color="#dcfce7"/>
    <stop offset="100%" stop-color="#bbf7d0"/>
  </linearGradient>
  <linearGradient id="livePill" x1="0" y1="0" x2="1" y2="0">
    <stop offset="0%" stop-color="#dbeafe"/>
    <stop offset="100%" stop-color="#bfdbfe"/>
  </linearGradient>
  <linearGradient id="warnPill" x1="0" y1="0" x2="1" y2="0">
    <stop offset="0%" stop-color="#fef3c7"/>
    <stop offset="100%" stop-color="#fde68a"/>
  </linearGradient>
  <linearGradient id="awsBar" x1="0" y1="0" x2="1" y2="0">
    <stop offset="0%" stop-color="#f97316"/>
    <stop offset="100%" stop-color="#fb923c"/>
  </linearGradient>
  <linearGradient id="azureBar" x1="0" y1="0" x2="1" y2="0">
    <stop offset="0%" stop-color="#2563eb"/>
    <stop offset="100%" stop-color="#60a5fa"/>
  </linearGradient>
  <linearGradient id="gcpBar" x1="0" y1="0" x2="1" y2="0">
    <stop offset="0%" stop-color="#16a34a"/>
    <stop offset="100%" stop-color="#4ade80"/>
  </linearGradient>
  <linearGradient id="ociBar" x1="0" y1="0" x2="1" y2="0">
    <stop offset="0%" stop-color="#7c3aed"/>
    <stop offset="100%" stop-color="#c084fc"/>
  </linearGradient>
  <linearGradient id="forecastBand" x1="0" y1="0" x2="0" y2="1">
    <stop offset="0%" stop-color="#8b5cf6" stop-opacity=".22"/>
    <stop offset="100%" stop-color="#8b5cf6" stop-opacity=".02"/>
  </linearGradient>
  <linearGradient id="opsProgress" x1="0" y1="0" x2="1" y2="0">
    <stop offset="0%" stop-color="#14b8a6"/>
    <stop offset="100%" stop-color="#38bdf8"/>
  </linearGradient>
  <linearGradient id="settingsGlow" x1="0" y1="0" x2="1" y2="1">
    <stop offset="0%" stop-color="#eff6ff"/>
    <stop offset="100%" stop-color="#f0fdf4"/>
  </linearGradient>
  <filter id="shadow" x="-20%" y="-20%" width="140%" height="140%">
    <feDropShadow dx="0" dy="8" stdDeviation="10" flood-color="#0f172a" flood-opacity=".08"/>
  </filter>
</defs>
<style>
  text {
    font-family: system-ui, -apple-system, BlinkMacSystemFont, "Segoe UI", sans-serif;
  }
  .mono {
    font-family: ui-monospace, "SFMono-Regular", Menlo, Monaco, Consolas, monospace;
  }
  .scene1 { animation: scene1 24s linear infinite; }
  .scene2 { animation: scene2 24s linear infinite; }
  .scene3 { animation: scene3 24s linear infinite; }
  .scene4 { animation: scene4 24s linear infinite; }
  .nav1 { animation: scene1 24s linear infinite; }
  .nav2 { animation: scene2 24s linear infinite; }
  .nav3 { animation: scene3 24s linear infinite; }
  .nav4 { animation: scene4 24s linear infinite; }
  .title1 { animation: scene1 24s linear infinite; }
  .title2 { animation: scene2 24s linear infinite; }
  .title3 { animation: scene3 24s linear infinite; }
  .title4 { animation: scene4 24s linear infinite; }
  .pulse { animation: pulse 2s ease-in-out infinite; }
  .softPulse { animation: softPulse 3s ease-in-out infinite; }
  .blink { animation: blink 1.1s step-end infinite; }
  .scanSweep { animation: scanSweep 2.6s ease-in-out infinite; }
  .dot1 { animation: dot 1.2s ease-in-out infinite; }
  .dot2 { animation: dot 1.2s ease-in-out .2s infinite; }
  .dot3 { animation: dot 1.2s ease-in-out .4s infinite; }
  @keyframes scene1 {
    0%, 23% { opacity: 1; }
    25%, 100% { opacity: 0; }
  }
  @keyframes scene2 {
    0%, 24% { opacity: 0; }
    27%, 48% { opacity: 1; }
    50%, 100% { opacity: 0; }
  }
  @keyframes scene3 {
    0%, 49% { opacity: 0; }
    52%, 73% { opacity: 1; }
    75%, 100% { opacity: 0; }
  }
  @keyframes scene4 {
    0%, 74% { opacity: 0; }
    77%, 98% { opacity: 1; }
    100% { opacity: 0; }
  }
  @keyframes pulse {
    0%, 100% { opacity: 1; }
    50% { opacity: .35; }
  }
  @keyframes softPulse {
    0%, 100% { transform: scale(1); opacity: .9; }
    50% { transform: scale(1.02); opacity: 1; }
  }
  @keyframes blink {
    0%, 100% { opacity: 1; }
    50% { opacity: 0; }
  }
  @keyframes scanSweep {
    0% { transform: translateX(-54px); opacity: 0; }
    15% { opacity: .85; }
    85% { opacity: .85; }
    100% { transform: translateX(240px); opacity: 0; }
  }
  @keyframes dot {
    0%, 80%, 100% { opacity: .25; }
    40% { opacity: 1; }
  }
</style>

<g clip-path="url(#frame)">
  <rect width="900" height="520" fill="url(#shellBg)"/>
  <circle cx="690" cy="72" r="130" fill="url(#heroGlow)"/>
  <circle cx="830" cy="450" r="140" fill="#dbeafe" fill-opacity=".35"/>

  <rect width="182" height="520" fill="url(#sidebarBg)"/>
  <rect x="0" y="18" width="4" height="26" rx="2" fill="#38bdf8"/>
  <text x="18" y="34" fill="#ffffff" font-size="16" font-weight="700">OptiOra</text>
  <text x="18" y="50" fill="#64748b" font-size="10">FinOps dashboard mockup</text>
  <line x1="14" y1="64" x2="168" y2="64" stroke="#1e293b"/>

  <rect class="nav1" x="10" y="78" width="162" height="34" rx="8" fill="#1d4ed8"/>
  <rect class="nav2" x="10" y="154" width="162" height="34" rx="8" fill="#1d4ed8"/>
  <rect class="nav3" x="10" y="230" width="162" height="34" rx="8" fill="#1d4ed8"/>
  <rect class="nav4" x="10" y="306" width="162" height="34" rx="8" fill="#1d4ed8"/>

  <circle cx="26" cy="95" r="4" fill="#38bdf8"/>
  <circle cx="26" cy="133" r="4" fill="#64748b"/>
  <circle cx="26" cy="171" r="4" fill="#22c55e"/>
  <circle cx="26" cy="209" r="4" fill="#64748b"/>
  <circle cx="26" cy="247" r="4" fill="#f59e0b"/>
  <circle cx="26" cy="285" r="4" fill="#64748b"/>
  <circle cx="26" cy="323" r="4" fill="#a855f7"/>

  <text x="38" y="99" fill="#ffffff" font-size="12">Overview</text>
  <text x="38" y="137" fill="#64748b" font-size="12">Costs</text>
  <text x="38" y="175" fill="#ffffff" font-size="12" opacity="0">Forecasting</text>
  <text x="38" y="213" fill="#64748b" font-size="12">AI Insights</text>
  <text x="38" y="251" fill="#ffffff" font-size="12" opacity="0">Operations</text>
  <text x="38" y="289" fill="#64748b" font-size="12">Recommendations</text>
  <text x="38" y="327" fill="#ffffff" font-size="12" opacity="0">Settings</text>
  <text class="nav2" x="38" y="175" fill="#ffffff" font-size="12">Forecasting</text>
  <text class="nav3" x="38" y="251" fill="#ffffff" font-size="12">Operations</text>
  <text class="nav4" x="38" y="327" fill="#ffffff" font-size="12">Settings</text>

  <line x1="14" y1="358" x2="168" y2="358" stroke="#1e293b"/>
  <text x="18" y="378" fill="#475569" font-size="9" font-weight="700" letter-spacing=".8">ACTIVE SOURCES</text>
  <rect x="18" y="390" width="146" height="26" rx="7" fill="#052e16"/>
  <text x="30" y="407" fill="#86efac" font-size="10" font-weight="700">CSV ACTIVE</text>
  <text x="100" y="407" fill="#dcfce7" font-size="9">214 rows</text>
  <rect x="18" y="424" width="146" height="26" rx="7" fill="#172554"/>
  <text x="30" y="441" fill="#93c5fd" font-size="10" font-weight="700">LIVE READY</text>
  <text x="96" y="441" fill="#dbeafe" font-size="9">4 providers</text>
  <text x="18" y="470" fill="#475569" font-size="10">Primary OCI region</text>
  <text x="18" y="486" fill="#e2e8f0" font-size="11" font-weight="600">uk-london-1</text>

  <rect x="182" y="0" width="718" height="56" fill="#ffffff" fill-opacity=".76"/>
  <line x1="182" y1="56" x2="900" y2="56" stroke="#dbeafe"/>
  <text class="title1" x="204" y="24" fill="#0f172a" font-size="14" font-weight="700">Imported Cost Overview</text>
  <text class="title2" x="204" y="24" fill="#0f172a" font-size="14" font-weight="700">Forecasting and OCI GenAI Insights</text>
  <text class="title3" x="204" y="24" fill="#0f172a" font-size="14" font-weight="700">Operations, History, Diff, and Alerts</text>
  <text class="title4" x="204" y="24" fill="#0f172a" font-size="14" font-weight="700">Settings, CSV Import, and Scan Readiness</text>

  <text class="title1" x="204" y="42" fill="#64748b" font-size="10">Public dashboard mode • real backend data • imported CSV promoted to active source</text>
  <text class="title2" x="204" y="42" fill="#64748b" font-size="10">Budget guardrails, p10-p50-p90 fan, and London-based OCI GenAI guidance</text>
  <text class="title3" x="204" y="42" fill="#64748b" font-size="10">Live credential flow, scan execution, diff review, exports, and alert handling</text>
  <text class="title4" x="204" y="42" fill="#64748b" font-size="10">CSV-first workflow with live providers still validated and ready for scans</text>

  <rect x="810" y="14" width="72" height="28" rx="8" fill="#f8fafc"/>
  <text x="846" y="31" fill="#334155" font-size="10" text-anchor="middle" font-weight="700">Apr 2026</text>

  <g class="scene1">
    <rect x="204" y="68" width="678" height="30" rx="10" fill="url(#csvPill)" filter="url(#shadow)"/>
    <circle cx="222" cy="83" r="5" fill="#16a34a"/>
    <text x="236" y="87" fill="#166534" font-size="10" font-weight="700">Imported CSV active</text>
    <text x="352" y="87" fill="#166534" font-size="10">214 rows • 4 providers • no placeholders</text>
    <rect x="664" y="74" width="92" height="18" rx="6" fill="#ffffff" fill-opacity=".8"/>
    <text x="710" y="86" fill="#0f766e" font-size="9" font-weight="700" text-anchor="middle">source-state banner</text>
    <rect x="764" y="74" width="102" height="18" rx="6" fill="#ffffff" fill-opacity=".8"/>
    <text x="815" y="86" fill="#1d4ed8" font-size="9" font-weight="700" text-anchor="middle">live checks ready</text>

    <rect x="204" y="112" width="154" height="86" rx="12" fill="#ffffff" filter="url(#shadow)"/>
    <rect x="204" y="112" width="5" height="86" rx="3" fill="#2563eb"/>
    <text x="220" y="132" fill="#64748b" font-size="9" font-weight="700" letter-spacing=".6">TOTAL COST</text>
    <text x="220" y="159" fill="#0f172a" font-size="24" font-weight="800">$47,230</text>
    <text x="220" y="177" fill="#16a34a" font-size="10">CSV active source</text>
    <text x="220" y="191" fill="#94a3b8" font-size="9">Apr 1-16, 2026 import</text>

    <rect x="376" y="112" width="154" height="86" rx="12" fill="#ffffff" filter="url(#shadow)"/>
    <rect x="376" y="112" width="5" height="86" rx="3" fill="#16a34a"/>
    <text x="392" y="132" fill="#64748b" font-size="9" font-weight="700" letter-spacing=".6">POTENTIAL SAVINGS</text>
    <text x="392" y="159" fill="#0f172a" font-size="24" font-weight="800">$14,200</text>
    <text x="392" y="177" fill="#16a34a" font-size="10">3 recommendation clusters</text>
    <text x="392" y="191" fill="#94a3b8" font-size="9">derived from imported costs</text>

    <rect x="548" y="112" width="154" height="86" rx="12" fill="#ffffff" filter="url(#shadow)"/>
    <rect x="548" y="112" width="5" height="86" rx="3" fill="#f59e0b"/>
    <text x="564" y="132" fill="#64748b" font-size="9" font-weight="700" letter-spacing=".6">ACCOUNT ROLLUPS</text>
    <text x="564" y="159" fill="#0f172a" font-size="24" font-weight="800">9</text>
    <text x="564" y="177" fill="#d97706" font-size="10">account and region aware</text>
    <text x="564" y="191" fill="#94a3b8" font-size="9">CSV plus live schema aligned</text>

    <rect x="720" y="112" width="162" height="86" rx="12" fill="#ffffff" filter="url(#shadow)"/>
    <rect x="720" y="112" width="5" height="86" rx="3" fill="#7c3aed"/>
    <text x="736" y="132" fill="#64748b" font-size="9" font-weight="700" letter-spacing=".6">COVERAGE</text>
    <text x="736" y="159" fill="#0f172a" font-size="24" font-weight="800">100%</text>
    <text x="736" y="177" fill="#7c3aed" font-size="10">dashboard backed by API data</text>
    <text x="736" y="191" fill="#94a3b8" font-size="9">source fallback states visible</text>

    <rect x="204" y="214" width="434" height="252" rx="14" fill="#ffffff" filter="url(#shadow)"/>
    <text x="224" y="238" fill="#0f172a" font-size="12" font-weight="700">Cost by Provider</text>
    <text x="224" y="254" fill="#94a3b8" font-size="9">Imported CSV totals grouped for the active workspace</text>

    <text x="224" y="286" fill="#475569" font-size="11">AWS</text>
    <rect x="272" y="272" width="318" height="18" rx="7" fill="#f1f5f9"/>
    <rect x="272" y="272" width="0" height="18" rx="7" fill="url(#awsBar)">
      <animate attributeName="width" values="0;238;232;238" dur="3.2s" repeatCount="indefinite"/>
    </rect>
    <text x="604" y="286" fill="#ea580c" font-size="10" font-weight="700">$19,837</text>

    <text x="224" y="320" fill="#475569" font-size="11">Azure</text>
    <rect x="272" y="306" width="318" height="18" rx="7" fill="#f1f5f9"/>
    <rect x="272" y="306" width="0" height="18" rx="7" fill="url(#azureBar)">
      <animate attributeName="width" values="0;166;160;166" dur="3.2s" repeatCount="indefinite"/>
    </rect>
    <text x="604" y="320" fill="#2563eb" font-size="10" font-weight="700">$13,224</text>

    <text x="224" y="354" fill="#475569" font-size="11">GCP</text>
    <rect x="272" y="340" width="318" height="18" rx="7" fill="#f1f5f9"/>
    <rect x="272" y="340" width="0" height="18" rx="7" fill="url(#gcpBar)">
      <animate attributeName="width" values="0;104;100;104" dur="3.2s" repeatCount="indefinite"/>
    </rect>
    <text x="604" y="354" fill="#15803d" font-size="10" font-weight="700">$8,502</text>

    <text x="224" y="388" fill="#475569" font-size="11">OCI</text>
    <rect x="272" y="374" width="318" height="18" rx="7" fill="#f1f5f9"/>
    <rect x="272" y="374" width="0" height="18" rx="7" fill="url(#ociBar)">
      <animate attributeName="width" values="0;72;68;72" dur="3.2s" repeatCount="indefinite"/>
    </rect>
    <text x="604" y="388" fill="#7c3aed" font-size="10" font-weight="700">$5,667</text>

    <rect x="224" y="414" width="384" height="36" rx="10" fill="#eff6ff"/>
    <text x="242" y="435" fill="#1d4ed8" font-size="10" font-weight="700">Imported CSV is the active cost source</text>
    <text x="452" y="435" fill="#334155" font-size="10">Live provider collection remains available when needed</text>

    <rect x="656" y="214" width="226" height="252" rx="14" fill="#ffffff" filter="url(#shadow)"/>
    <text x="676" y="238" fill="#0f172a" font-size="12" font-weight="700">Source State and Rollups</text>
    <rect x="676" y="254" width="186" height="24" rx="8" fill="url(#csvPill)"/>
    <text x="692" y="270" fill="#166534" font-size="10" font-weight="700">Active:</text>
    <text x="732" y="270" fill="#166534" font-size="10">Imported CSV summary</text>
    <rect x="676" y="288" width="186" height="24" rx="8" fill="url(#livePill)"/>
    <text x="692" y="304" fill="#1d4ed8" font-size="10" font-weight="700">Ready:</text>
    <text x="731" y="304" fill="#1d4ed8" font-size="10">AWS, Azure, GCP, OCI creds</text>
    <rect x="676" y="322" width="186" height="24" rx="8" fill="#f8fafc"/>
    <text x="692" y="338" fill="#475569" font-size="10" font-weight="700">Verified:</text>
    <text x="742" y="338" fill="#475569" font-size="10">real backend, no placeholders</text>

    <text x="676" y="372" fill="#64748b" font-size="10" font-weight="700">Top accounts</text>
    <text x="676" y="392" fill="#334155" font-size="10">aws-prod-master</text>
    <text x="838" y="392" fill="#0f172a" font-size="10" text-anchor="end">$16.4k</text>
    <text x="676" y="412" fill="#334155" font-size="10">azure-core-subscription</text>
    <text x="838" y="412" fill="#0f172a" font-size="10" text-anchor="end">$11.9k</text>
    <text x="676" y="432" fill="#334155" font-size="10">oci-finops-compartment</text>
    <text x="838" y="432" fill="#0f172a" font-size="10" text-anchor="end">$5.1k</text>
    <text x="676" y="452" fill="#94a3b8" font-size="9">Region examples: us-east-1, westeurope, us-central1, uk-london-1</text>
  </g>

  <g class="scene2">
    <rect x="204" y="68" width="250" height="30" rx="10" fill="#ede9fe" filter="url(#shadow)"/>
    <circle cx="222" cy="83" r="5" fill="#7c3aed"/>
    <text x="236" y="87" fill="#6d28d9" font-size="10" font-weight="700">OCI GenAI primary</text>
    <text x="330" y="87" fill="#6d28d9" font-size="10">uk-london-1</text>

    <rect x="204" y="112" width="434" height="354" rx="14" fill="#ffffff" filter="url(#shadow)"/>
    <text x="224" y="138" fill="#0f172a" font-size="12" font-weight="700">Forecast with Fan Percentiles</text>
    <text x="224" y="154" fill="#94a3b8" font-size="9">Imported baseline plus budget guardrails and deterministic scenarios</text>

    <line x1="244" y1="188" x2="602" y2="188" stroke="#f1f5f9"/>
    <line x1="244" y1="228" x2="602" y2="228" stroke="#f1f5f9"/>
    <line x1="244" y1="268" x2="602" y2="268" stroke="#f1f5f9"/>
    <line x1="244" y1="308" x2="602" y2="308" stroke="#f1f5f9"/>
    <line x1="244" y1="348" x2="602" y2="348" stroke="#f1f5f9"/>

    <text x="214" y="192" fill="#94a3b8" font-size="8.5">$62k</text>
    <text x="214" y="232" fill="#94a3b8" font-size="8.5">$58k</text>
    <text x="214" y="272" fill="#94a3b8" font-size="8.5">$54k</text>
    <text x="214" y="312" fill="#94a3b8" font-size="8.5">$50k</text>
    <text x="214" y="352" fill="#94a3b8" font-size="8.5">$46k</text>

    <path d="M264,332 C318,316 350,292 398,278 C440,265 480,236 528,224 C552,218 571,210 596,204 L596,358 L264,358 Z" fill="url(#forecastBand)"/>
    <path d="M264,320 C318,306 350,286 398,266 C440,249 480,228 528,214 C552,206 571,198 596,192" fill="none" stroke="#7c3aed" stroke-width="3" stroke-linecap="round" stroke-dasharray="420" stroke-dashoffset="420">
      <animate attributeName="stroke-dashoffset" from="420" to="0" dur="1.5s" repeatCount="indefinite"/>
    </path>
    <path d="M264,344 C320,332 352,320 398,308 C444,295 482,282 528,270 C552,264 571,256 596,248" fill="none" stroke="#c4b5fd" stroke-width="2" stroke-dasharray="6 5"/>
    <path d="M264,300 C316,286 350,262 398,244 C442,224 480,204 528,188 C552,180 571,172 596,164" fill="none" stroke="#a78bfa" stroke-width="2" stroke-dasharray="6 5"/>
    <circle cx="528" cy="214" r="5" fill="#7c3aed" class="pulse"/>
    <rect x="494" y="176" width="98" height="24" rx="8" fill="#7c3aed"/>
    <text x="543" y="192" fill="#ffffff" font-size="10" font-weight="700" text-anchor="middle">P50 $55.8k</text>

    <text x="264" y="382" fill="#94a3b8" font-size="10" text-anchor="middle">May</text>
    <text x="332" y="382" fill="#94a3b8" font-size="10" text-anchor="middle">Jun</text>
    <text x="400" y="382" fill="#94a3b8" font-size="10" text-anchor="middle">Jul</text>
    <text x="468" y="382" fill="#94a3b8" font-size="10" text-anchor="middle">Aug</text>
    <text x="536" y="382" fill="#94a3b8" font-size="10" text-anchor="middle">Sep</text>
    <text x="596" y="382" fill="#7c3aed" font-size="10" font-weight="700" text-anchor="middle">Oct</text>

    <rect x="224" y="402" width="118" height="28" rx="9" fill="#eff6ff"/>
    <text x="283" y="420" fill="#1d4ed8" font-size="10" font-weight="700" text-anchor="middle">balanced</text>
    <rect x="350" y="402" width="118" height="28" rx="9" fill="#f5f3ff"/>
    <text x="409" y="420" fill="#6d28d9" font-size="10" font-weight="700" text-anchor="middle">p10 / p50 / p90</text>
    <rect x="476" y="402" width="138" height="28" rx="9" fill="#ecfdf5"/>
    <text x="545" y="420" fill="#15803d" font-size="10" font-weight="700" text-anchor="middle">budget guardrail on</text>

    <rect x="656" y="112" width="226" height="354" rx="14" fill="#ffffff" filter="url(#shadow)"/>
    <text x="676" y="138" fill="#0f172a" font-size="12" font-weight="700">AI Insight Brief</text>
    <text x="676" y="154" fill="#94a3b8" font-size="9">OCI GenAI response grounded in current forecast and source state</text>

    <rect x="676" y="174" width="186" height="86" rx="12" fill="#f8fafc"/>
    <text x="692" y="196" fill="#475569" font-size="9" font-weight="700">PROMPT</text>
    <text x="692" y="218" fill="#0f172a" font-size="11">What should finance watch next month?</text>
    <text x="692" y="238" fill="#334155" font-size="10">Assess imported baseline, alerts, and account rollups.</text>

    <rect x="676" y="274" width="186" height="122" rx="12" fill="#eef2ff"/>
    <text x="692" y="296" fill="#4338ca" font-size="9" font-weight="700">OCI GENAI ANSWER</text>
    <text x="692" y="320" fill="#1f2937" font-size="10">Spend is stable, but AWS compute and</text>
    <text x="692" y="336" fill="#1f2937" font-size="10">Azure core networking remain the main</text>
    <text x="692" y="352" fill="#1f2937" font-size="10">drivers. Keep the CSV import as the</text>
    <text x="692" y="368" fill="#1f2937" font-size="10">active baseline and compare the next</text>
    <text x="692" y="384" fill="#1f2937" font-size="10">scan diff before approving budget shifts.</text>

    <rect x="676" y="410" width="186" height="40" rx="12" fill="#ffffff"/>
    <text x="692" y="434" fill="#64748b" font-size="10">Generating</text>
    <circle class="dot1" cx="754" cy="430" r="3.5" fill="#7c3aed"/>
    <circle class="dot2" cx="768" cy="430" r="3.5" fill="#7c3aed"/>
    <circle class="dot3" cx="782" cy="430" r="3.5" fill="#7c3aed"/>
  </g>

  <g class="scene3">
    <rect x="204" y="68" width="278" height="30" rx="10" fill="url(#livePill)" filter="url(#shadow)"/>
    <circle cx="222" cy="83" r="5" fill="#2563eb"/>
    <text x="236" y="87" fill="#1d4ed8" font-size="10" font-weight="700">Live credential flow verified</text>
    <text x="386" y="87" fill="#1d4ed8" font-size="10">history • diff • exports</text>

    <rect x="204" y="112" width="300" height="114" rx="14" fill="#ffffff" filter="url(#shadow)"/>
    <text x="224" y="138" fill="#0f172a" font-size="12" font-weight="700">Current Scan</text>
    <text x="224" y="156" fill="#94a3b8" font-size="9">AWS credential approved • collecting provider snapshots</text>
    <rect x="224" y="176" width="240" height="18" rx="8" fill="#e0f2fe"/>
    <rect x="224" y="176" width="0" height="18" rx="8" fill="url(#opsProgress)">
      <animate attributeName="width" values="40;138;212;196;240" dur="3s" repeatCount="indefinite"/>
    </rect>
    <rect class="scanSweep" x="224" y="176" width="52" height="18" rx="8" fill="#ffffff" fill-opacity=".35"/>
    <text x="224" y="208" fill="#0f766e" font-size="10" font-weight="700">Progress:</text>
    <text x="282" y="208" fill="#334155" font-size="10">validate -> collect -> diff -> alerts -> export</text>

    <rect x="522" y="112" width="170" height="114" rx="14" fill="#ffffff" filter="url(#shadow)"/>
    <text x="542" y="138" fill="#64748b" font-size="9" font-weight="700">SCAN HISTORY</text>
    <text x="542" y="168" fill="#0f172a" font-size="26" font-weight="800">12</text>
    <text x="542" y="188" fill="#16a34a" font-size="10">2 completed today</text>

    <rect x="712" y="112" width="170" height="114" rx="14" fill="#ffffff" filter="url(#shadow)"/>
    <text x="732" y="138" fill="#64748b" font-size="9" font-weight="700">OPEN ALERTS</text>
    <text x="732" y="168" fill="#0f172a" font-size="26" font-weight="800">3</text>
    <text x="732" y="188" fill="#f59e0b" font-size="10">1 needs acknowledgement</text>

    <rect x="204" y="244" width="678" height="138" rx="14" fill="#ffffff" filter="url(#shadow)"/>
    <text x="224" y="268" fill="#0f172a" font-size="12" font-weight="700">Recent Runs and Diff Summary</text>
    <line x1="224" y1="282" x2="862" y2="282" stroke="#e2e8f0"/>
    <text x="224" y="306" fill="#94a3b8" font-size="9">SCAN ID</text>
    <text x="396" y="306" fill="#94a3b8" font-size="9">STATE</text>
    <text x="492" y="306" fill="#94a3b8" font-size="9">DIFF</text>
    <text x="610" y="306" fill="#94a3b8" font-size="9">ALERTS</text>
    <text x="734" y="306" fill="#94a3b8" font-size="9">EXPORTS</text>

    <text x="224" y="336" fill="#0f172a" font-size="10" class="mono">scan_2026_04_17_0904</text>
    <rect x="396" y="323" width="68" height="18" rx="6" fill="#dcfce7"/>
    <text x="430" y="336" fill="#166534" font-size="9" font-weight="700" text-anchor="middle">complete</text>
    <text x="492" y="336" fill="#1d4ed8" font-size="10">+$1.8k AWS compute</text>
    <text x="610" y="336" fill="#d97706" font-size="10">2 triggered</text>
    <rect x="734" y="323" width="54" height="18" rx="6" fill="#eff6ff"/>
    <text x="761" y="336" fill="#1d4ed8" font-size="9" font-weight="700" text-anchor="middle">history.csv</text>
    <rect x="794" y="323" width="48" height="18" rx="6" fill="#eff6ff"/>
    <text x="818" y="336" fill="#1d4ed8" font-size="9" font-weight="700" text-anchor="middle">diff.csv</text>

    <text x="224" y="364" fill="#0f172a" font-size="10" class="mono">scan_2026_04_16_1702</text>
    <rect x="396" y="351" width="68" height="18" rx="6" fill="#dcfce7"/>
    <text x="430" y="364" fill="#166534" font-size="9" font-weight="700" text-anchor="middle">complete</text>
    <text x="492" y="364" fill="#1d4ed8" font-size="10">-$0.9k storage cleanup</text>
    <text x="610" y="364" fill="#16a34a" font-size="10">0 new</text>
    <rect x="734" y="351" width="54" height="18" rx="6" fill="#eff6ff"/>
    <text x="761" y="364" fill="#1d4ed8" font-size="9" font-weight="700" text-anchor="middle">history.csv</text>
    <rect x="794" y="351" width="48" height="18" rx="6" fill="#eff6ff"/>
    <text x="818" y="364" fill="#1d4ed8" font-size="9" font-weight="700" text-anchor="middle">diff.csv</text>

    <rect x="204" y="398" width="678" height="68" rx="14" fill="#fffbeb" filter="url(#shadow)"/>
    <text x="224" y="422" fill="#92400e" font-size="12" font-weight="700">Alert stream</text>
    <text x="224" y="442" fill="#78350f" font-size="10">Azure network spend +11.6% versus previous scan • acknowledge available • export path green</text>
    <text x="224" y="458" fill="#a16207" font-size="9">Operations page now reflects live scan history, diffs, alerts, and CSV export actions end to end.</text>
  </g>

  <g class="scene4">
    <rect x="204" y="68" width="294" height="30" rx="10" fill="url(#warnPill)" filter="url(#shadow)"/>
    <circle cx="222" cy="83" r="5" fill="#d97706"/>
    <text x="236" y="87" fill="#92400e" font-size="10" font-weight="700">CSV first for now</text>
    <text x="320" y="87" fill="#92400e" font-size="10">native Excel intentionally deferred</text>

    <rect x="204" y="112" width="382" height="354" rx="14" fill="#ffffff" filter="url(#shadow)"/>
    <text x="224" y="138" fill="#0f172a" font-size="12" font-weight="700">Upload Cost CSV</text>
    <text x="224" y="154" fill="#94a3b8" font-size="9">Manual billing import that becomes the active cost source after validation</text>
    <rect x="224" y="176" width="118" height="22" rx="7" fill="#f8fafc"/>
    <text x="283" y="191" fill="#334155" font-size="10" font-weight="700" text-anchor="middle">UTF-8 CSV only</text>

    <rect x="224" y="214" width="342" height="84" rx="12" fill="url(#settingsGlow)"/>
    <text x="242" y="236" fill="#94a3b8" font-size="9" font-weight="700">SELECTED FILE</text>
    <text x="242" y="258" fill="#0f172a" font-size="12" font-weight="700">imports/april-costs.csv</text>
    <text x="242" y="277" fill="#334155" font-size="10">214 rows • account, region, service, and cost columns present</text>
    <rect x="420" y="226" width="126" height="24" rx="8" fill="#0f172a"/>
    <text x="483" y="242" fill="#ffffff" font-size="10" font-weight="700" text-anchor="middle">Upload CSV</text>
    <rect x="420" y="260" width="126" height="24" rx="8" fill="#dcfce7"/>
    <text x="483" y="276" fill="#166534" font-size="10" font-weight="700" text-anchor="middle">Imported successfully</text>

    <rect x="224" y="316" width="342" height="132" rx="12" fill="#f8fafc"/>
    <text x="242" y="338" fill="#0f172a" font-size="11" font-weight="700">Imported dataset summary</text>
    <text x="242" y="360" fill="#94a3b8" font-size="9">SOURCE</text>
    <text x="242" y="376" fill="#0f172a" font-size="11">april-costs.csv</text>
    <text x="396" y="360" fill="#94a3b8" font-size="9">ROWS</text>
    <text x="396" y="376" fill="#0f172a" font-size="11" font-weight="700">214</text>
    <text x="470" y="360" fill="#94a3b8" font-size="9">TOTAL</text>
    <text x="470" y="376" fill="#0f172a" font-size="11" font-weight="700">$47,230</text>
    <rect x="242" y="392" width="134" height="24" rx="8" fill="url(#csvPill)"/>
    <text x="309" y="408" fill="#166534" font-size="10" font-weight="700" text-anchor="middle">Active cost source</text>
    <rect x="388" y="392" width="158" height="24" rx="8" fill="#eff6ff"/>
    <text x="467" y="408" fill="#1d4ed8" font-size="10" font-weight="700" text-anchor="middle">Overview synced</text>
    <text x="242" y="434" fill="#64748b" font-size="10">Costs, forecasting, AI insights, and recommendations switch to imported totals.</text>

    <rect x="604" y="112" width="278" height="354" rx="14" fill="#ffffff" filter="url(#shadow)"/>
    <text x="624" y="138" fill="#0f172a" font-size="12" font-weight="700">Live Providers and Scan Readiness</text>
    <text x="624" y="154" fill="#94a3b8" font-size="9">Credential validation remains available even when CSV is active</text>

    <circle cx="630" cy="188" r="5" fill="#f97316"/>
    <text x="642" y="192" fill="#334155" font-size="10">AWS</text>
    <rect x="806" y="176" width="56" height="18" rx="6" fill="#dcfce7"/>
    <text x="834" y="188" fill="#166534" font-size="9" text-anchor="middle">valid</text>

    <circle cx="630" cy="220" r="5" fill="#2563eb"/>
    <text x="642" y="224" fill="#334155" font-size="10">Azure</text>
    <rect x="806" y="208" width="56" height="18" rx="6" fill="#dcfce7"/>
    <text x="834" y="220" fill="#166534" font-size="9" text-anchor="middle">valid</text>

    <circle cx="630" cy="252" r="5" fill="#16a34a"/>
    <text x="642" y="256" fill="#334155" font-size="10">GCP</text>
    <rect x="806" y="240" width="56" height="18" rx="6" fill="#dcfce7"/>
    <text x="834" y="252" fill="#166534" font-size="9" text-anchor="middle">valid</text>

    <circle cx="630" cy="284" r="5" fill="#7c3aed"/>
    <text x="642" y="288" fill="#334155" font-size="10">OCI</text>
    <rect x="806" y="272" width="56" height="18" rx="6" fill="#dcfce7"/>
    <text x="834" y="284" fill="#166534" font-size="9" text-anchor="middle">valid</text>

    <rect x="624" y="316" width="218" height="28" rx="9" fill="#ecfdf5"/>
    <text x="733" y="334" fill="#166534" font-size="10" font-weight="700" text-anchor="middle">scan approval available</text>
    <rect x="624" y="354" width="218" height="28" rx="9" fill="#eff6ff"/>
    <text x="733" y="372" fill="#1d4ed8" font-size="10" font-weight="700" text-anchor="middle">history, diff, alerts, exports ready</text>
    <rect x="624" y="392" width="218" height="40" rx="12" fill="#f8fafc"/>
    <text x="642" y="416" fill="#64748b" font-size="10">Real backend data state banners surface whether the view is imported, live, partial, or unavailable.</text>
  </g>
</g>

<rect width="900" height="520" rx="18" fill="none" stroke="#cbd5e1" stroke-width="1.5"/>
</svg>
