<svg xmlns="http://www.w3.org/2000/svg" viewBox="0 0 900 540" width="900" height="540" role="img" aria-labelledby="title desc">
<title id="title">OptiOra live FinOps control plane</title>
<desc id="desc">Animated dashboard summary showing live OCI advisor findings, decision-grade ranking, authenticated Advisor Conversation telemetry, action ledger lifecycle state machine, OCI cost report ingestion from bling namespace, and overview action queue.</desc>
<defs>
  <clipPath id="frame"><rect width="900" height="540" rx="18"/></clipPath>
  <linearGradient id="pageBg" x1="0" y1="0" x2="1" y2="1">
    <stop offset="0%" stop-color="#f8fafc"/>
    <stop offset="50%" stop-color="#eef6ff"/>
    <stop offset="100%" stop-color="#f0fdf4"/>
  </linearGradient>
  <linearGradient id="sidebarBg" x1="0" y1="0" x2="0" y2="1">
    <stop offset="0%" stop-color="#0f172a"/>
    <stop offset="100%" stop-color="#111827"/>
  </linearGradient>
  <linearGradient id="blueGrad" x1="0" y1="0" x2="1" y2="1">
    <stop offset="0%" stop-color="#2563eb"/>
    <stop offset="100%" stop-color="#38bdf8"/>
  </linearGradient>
  <linearGradient id="greenGrad" x1="0" y1="0" x2="1" y2="1">
    <stop offset="0%" stop-color="#059669"/>
    <stop offset="100%" stop-color="#22c55e"/>
  </linearGradient>
  <linearGradient id="amberGrad" x1="0" y1="0" x2="1" y2="1">
    <stop offset="0%" stop-color="#d97706"/>
    <stop offset="100%" stop-color="#fbbf24"/>
  </linearGradient>
  <linearGradient id="redGrad" x1="0" y1="0" x2="1" y2="1">
    <stop offset="0%" stop-color="#b91c1c"/>
    <stop offset="100%" stop-color="#f97316"/>
  </linearGradient>
  <filter id="shadow" x="-18%" y="-18%" width="136%" height="136%">
    <feDropShadow dx="0" dy="8" stdDeviation="9" flood-color="#0f172a" flood-opacity=".08"/>
  </filter>
  <filter id="smallShadow" x="-12%" y="-12%" width="124%" height="124%">
    <feDropShadow dx="0" dy="3" stdDeviation="4" flood-color="#0f172a" flood-opacity=".07"/>
  </filter>
</defs>
<style>
  text { font-family: system-ui,-apple-system,BlinkMacSystemFont,"Segoe UI",sans-serif; }
  .mono { font-family: ui-monospace,"SFMono-Regular",Menlo,Monaco,Consolas,monospace; }
  .screen2,.screen3,.screen4,.nav2,.nav3,.nav4 { opacity:0; }
  .screen1,.nav1 { animation: show1 24s linear infinite; }
  .screen2,.nav2 { animation: show2 24s linear infinite; }
  .screen3,.nav3 { animation: show3 24s linear infinite; }
  .screen4,.nav4 { animation: show4 24s linear infinite; }
  .pulse { animation: pulse 2.2s ease-in-out infinite; }
  .flow1 { animation: flow 2.8s ease-in-out infinite; }
  .flow2 { animation: flow 2.8s ease-in-out .8s infinite; }
  .flow3 { animation: flow 2.8s ease-in-out 1.6s infinite; }
  .barGrow { transform-origin:left center; animation: barGrow 3s ease-in-out infinite; }
  @keyframes show1 { 0%,22%{opacity:1} 25%,100%{opacity:0} }
  @keyframes show2 { 0%,25%{opacity:0} 28%,47%{opacity:1} 50%,100%{opacity:0} }
  @keyframes show3 { 0%,50%{opacity:0} 53%,72%{opacity:1} 75%,100%{opacity:0} }
  @keyframes show4 { 0%,75%{opacity:0} 78%,97%{opacity:1} 100%{opacity:0} }
  @keyframes pulse { 0%,100%{opacity:1} 50%{opacity:.35} }
  @keyframes flow { 0%{transform:translateX(0);opacity:.15} 45%{opacity:1} 100%{transform:translateX(64px);opacity:.15} }
  @keyframes barGrow { 0%,100%{transform:scaleX(.82)} 50%{transform:scaleX(1)} }
  @media (prefers-reduced-motion: reduce) {
    .screen1,.nav1 { opacity:1; animation:none; }
    .screen2,.screen3,.screen4,.nav2,.nav3,.nav4 { opacity:0; animation:none; }
    .pulse,.flow1,.flow2,.flow3,.barGrow { animation:none; }
  }
</style>
<g clip-path="url(#frame)">
  <rect width="900" height="540" fill="url(#pageBg)"/>
  <circle cx="745" cy="74" r="132" fill="#dbeafe" fill-opacity=".42"/>
  <circle cx="830" cy="470" r="150" fill="#dcfce7" fill-opacity=".34"/>

  <rect width="184" height="540" fill="url(#sidebarBg)"/>
  <rect x="0" y="18" width="4" height="28" rx="2" fill="#38bdf8"/>
  <text x="20" y="36" fill="#fff" font-size="17" font-weight="800">OptiOra</text>
  <text x="20" y="53" fill="#94a3b8" font-size="9.5">FinOps Control Plane</text>
  <line x1="14" y1="68" x2="170" y2="68" stroke="#1e293b"/>

  <text x="18" y="86" fill="#64748b" font-size="8" font-weight="800" letter-spacing=".8">WORKSPACE</text>
  <rect class="nav1" x="10" y="94" width="164" height="28" rx="8" fill="#1d4ed8"/>
  <circle cx="28" cy="108" r="4" fill="#38bdf8"/><text x="42" y="112" fill="#e2e8f0" font-size="11.5">Overview</text>
  <rect class="nav3" x="10" y="126" width="164" height="28" rx="8" fill="#1d4ed8"/>
  <circle cx="28" cy="140" r="4" fill="#60a5fa"/><text x="42" y="144" fill="#e2e8f0" font-size="11.5">Action Ledger</text>

  <text x="18" y="177" fill="#64748b" font-size="8" font-weight="800" letter-spacing=".8">OPTIMIZE</text>
  <rect class="nav2" x="10" y="185" width="164" height="28" rx="8" fill="#059669"/>
  <circle cx="28" cy="199" r="4" fill="#22c55e"/><text x="42" y="203" fill="#e2e8f0" font-size="11.5">Optimization Advisor</text>
  <circle cx="28" cy="232" r="4" fill="#10b981"/><text x="42" y="236" fill="#94a3b8" font-size="11">Unit Economics</text>
  <circle cx="28" cy="260" r="4" fill="#10b981"/><text x="42" y="264" fill="#94a3b8" font-size="11">Cost Advisor</text>

  <text x="18" y="299" fill="#64748b" font-size="8" font-weight="800" letter-spacing=".8">CLOUD ESTATE</text>
  <rect class="nav4" x="10" y="307" width="164" height="28" rx="8" fill="#b45309"/>
  <circle cx="28" cy="321" r="4" fill="#f97316"/><text x="42" y="325" fill="#e2e8f0" font-size="11.5">Advanced FinOps</text>
  <circle cx="28" cy="354" r="4" fill="#f59e0b"/><text x="42" y="358" fill="#94a3b8" font-size="11">Inventory Explorer</text>
  <circle cx="28" cy="382" r="4" fill="#f59e0b"/><text x="42" y="386" fill="#94a3b8" font-size="11">Billing Allocation</text>

  <line x1="14" y1="415" x2="170" y2="415" stroke="#1e293b"/>
  <text x="18" y="434" fill="#64748b" font-size="8" font-weight="800" letter-spacing=".8">LIVE STATUS</text>
  <rect x="18" y="444" width="148" height="25" rx="7" fill="#052e16"/>
  <circle cx="32" cy="456" r="4" fill="#22c55e" class="pulse"/>
  <text x="44" y="460" fill="#bbf7d0" font-size="9.5" font-weight="800">OCI connected</text>
  <rect x="18" y="476" width="148" height="25" rx="7" fill="#422006"/>
  <circle cx="32" cy="488" r="4" fill="#f59e0b"/>
  <text x="44" y="492" fill="#fde68a" font-size="9.5" font-weight="800">3 providers pending</text>
  <text x="18" y="520" fill="#94a3b8" font-size="9">Remote OCI VM deployment</text>

  <rect x="184" y="0" width="716" height="58" fill="#ffffff" fill-opacity=".82"/>
  <line x1="184" y1="58" x2="900" y2="58" stroke="#dbeafe"/>
  <text class="screen1" x="204" y="25" fill="#0f172a" font-size="14" font-weight="800">Overview: live OCI estate with honest multi-cloud status</text>
  <text class="screen2" x="204" y="25" fill="#0f172a" font-size="14" font-weight="800">Optimization Advisor: provider findings loaded by default</text>
  <text class="screen3" x="204" y="25" fill="#0f172a" font-size="14" font-weight="800">Action Ledger: lifecycle, variance, owner follow-through</text>
  <text class="screen4" x="204" y="25" fill="#0f172a" font-size="14" font-weight="800">Advanced FinOps: decision-grade ranking plus authenticated advisor context</text>
  <text class="screen1" x="204" y="43" fill="#64748b" font-size="10">Action Queue links live advisor findings, unattached storage, and open ledger actions directly from the overview.</text>
  <text class="screen2" x="204" y="43" fill="#64748b" font-size="10">111 advisor findings, $13.2K/mo advisor savings, 285 unattached volumes.</text>
  <text class="screen3" x="204" y="43" fill="#64748b" font-size="10">150 ledger actions, $284.4K/mo planned savings, realized savings tracked separately.</text>
  <text class="screen4" x="204" y="43" fill="#64748b" font-size="10">Advisor Conversation now carries the browser session into backend telemetry calls.</text>
  <rect x="740" y="15" width="142" height="27" rx="8" fill="#ecfdf5"/>
  <circle cx="757" cy="28" r="4" fill="#16a34a" class="pulse"/>
  <text x="812" y="32" fill="#166534" font-size="9.5" font-weight="800" text-anchor="middle">LIVE BACKEND</text>

  <g class="screen1">
    <rect x="204" y="78" width="676" height="48" rx="12" fill="#eff6ff" stroke="#bfdbfe" filter="url(#smallShadow)"/>
    <text x="224" y="101" fill="#1e40af" font-size="11.5" font-weight="800">Provider data source</text>
    <text x="224" y="117" fill="#475569" font-size="9.5">OCI runtime access configured. Cost Reports (bling namespace) feed monthly summaries. AWS, Azure, and GCP await credentials.</text>
    <rect x="664" y="91" width="194" height="24" rx="8" fill="#ffffff"/>
    <text x="761" y="107" fill="#166534" font-size="9.5" font-weight="800" text-anchor="middle">remote VM verified</text>

    <rect x="204" y="146" width="150" height="98" rx="13" fill="#ffffff" filter="url(#shadow)"/>
    <rect x="204" y="146" width="5" height="98" rx="3" fill="#16a34a"/>
    <text x="224" y="170" fill="#64748b" font-size="8.5" font-weight="800" letter-spacing=".5">CONNECTED</text>
    <text x="224" y="199" fill="#0f172a" font-size="30" font-weight="900">OCI</text>
    <text x="224" y="220" fill="#16a34a" font-size="10" font-weight="800">advisor + ledger live</text>

    <rect x="374" y="146" width="150" height="98" rx="13" fill="#ffffff" filter="url(#shadow)"/>
    <rect x="374" y="146" width="5" height="98" rx="3" fill="#f59e0b"/>
    <text x="394" y="170" fill="#64748b" font-size="8.5" font-weight="800" letter-spacing=".5">PENDING</text>
    <text x="394" y="199" fill="#0f172a" font-size="30" font-weight="900">3</text>
    <text x="394" y="220" fill="#92400e" font-size="10" font-weight="800">AWS Azure GCP creds</text>

    <rect x="544" y="146" width="150" height="98" rx="13" fill="#ffffff" filter="url(#shadow)"/>
    <rect x="544" y="146" width="5" height="98" rx="3" fill="#2563eb"/>
    <text x="564" y="170" fill="#64748b" font-size="8.5" font-weight="800" letter-spacing=".5">HISTORY</text>
    <text x="564" y="199" fill="#0f172a" font-size="30" font-weight="900">OCI</text>
    <text x="564" y="220" fill="#1d4ed8" font-size="10" font-weight="800">trends available</text>

    <rect x="714" y="146" width="166" height="98" rx="13" fill="#ffffff" filter="url(#shadow)"/>
    <rect x="714" y="146" width="5" height="98" rx="3" fill="#7c3aed"/>
    <text x="734" y="170" fill="#64748b" font-size="8.5" font-weight="800" letter-spacing=".5">MENU</text>
    <text x="734" y="199" fill="#0f172a" font-size="24" font-weight="900">organized</text>
    <text x="734" y="220" fill="#6d28d9" font-size="10" font-weight="800">workspace optimize estate</text>

    <rect x="204" y="272" width="676" height="198" rx="14" fill="#ffffff" filter="url(#shadow)"/>
    <text x="226" y="299" fill="#0f172a" font-size="13" font-weight="800">Current provider matrix</text>
    <line x1="226" y1="314" x2="858" y2="314" stroke="#e2e8f0"/>
    <text x="226" y="337" fill="#64748b" font-size="9" font-weight="800">PROVIDER</text>
    <text x="388" y="337" fill="#64748b" font-size="9" font-weight="800">ADVISOR</text>
    <text x="530" y="337" fill="#64748b" font-size="9" font-weight="800">LEDGER</text>
    <text x="672" y="337" fill="#64748b" font-size="9" font-weight="800">HISTORY</text>
    <text x="800" y="337" fill="#64748b" font-size="9" font-weight="800" text-anchor="end">STATE</text>
    <g>
      <rect x="226" y="352" width="632" height="30" rx="8" fill="#f0fdf4"/>
      <text x="226" y="371" fill="#0f172a" font-size="10.5" font-weight="800">OCI</text>
      <text x="388" y="371" fill="#166534" font-size="10" font-weight="800">111 live findings</text>
      <text x="530" y="371" fill="#166534" font-size="10" font-weight="800">150 actions</text>
      <text x="672" y="371" fill="#166534" font-size="10" font-weight="800">available</text>
      <text x="800" y="371" fill="#166534" font-size="10" font-weight="800" text-anchor="end">connected</text>
    </g>
    <g fill="#fff7ed">
      <rect x="226" y="390" width="632" height="30" rx="8"/>
      <rect x="226" y="428" width="632" height="30" rx="8"/>
      <rect x="226" y="466" width="632" height="30" rx="8"/>
    </g>
    <text x="226" y="409" fill="#0f172a" font-size="10.5" font-weight="800">AWS</text>
    <text x="226" y="447" fill="#0f172a" font-size="10.5" font-weight="800">Azure</text>
    <text x="226" y="485" fill="#0f172a" font-size="10.5" font-weight="800">GCP</text>
    <text x="388" y="409" fill="#92400e" font-size="10" font-weight="800">not configured</text>
    <text x="388" y="447" fill="#92400e" font-size="10" font-weight="800">not configured</text>
    <text x="388" y="485" fill="#92400e" font-size="10" font-weight="800">not configured</text>
    <text x="530" y="409" fill="#0369a1" font-size="10" font-weight="800">0 clean rows</text>
    <text x="530" y="447" fill="#0369a1" font-size="10" font-weight="800">0 clean rows</text>
    <text x="530" y="485" fill="#0369a1" font-size="10" font-weight="800">0 clean rows</text>
    <text x="672" y="409" fill="#0369a1" font-size="10" font-weight="800">empty state</text>
    <text x="672" y="447" fill="#0369a1" font-size="10" font-weight="800">empty state</text>
    <text x="672" y="485" fill="#0369a1" font-size="10" font-weight="800">empty state</text>
    <text x="800" y="409" fill="#92400e" font-size="10" font-weight="800" text-anchor="end">awaiting creds</text>
    <text x="800" y="447" fill="#92400e" font-size="10" font-weight="800" text-anchor="end">awaiting creds</text>
    <text x="800" y="485" fill="#92400e" font-size="10" font-weight="800" text-anchor="end">awaiting creds</text>
  </g>

  <g class="screen2">
    <rect x="204" y="78" width="676" height="42" rx="12" fill="#ecfdf5" stroke="#a7f3d0" filter="url(#smallShadow)"/>
    <circle cx="224" cy="99" r="5" fill="#16a34a" class="pulse"/>
    <text x="240" y="103" fill="#166534" font-size="11" font-weight="800">Provider Advisor loaded by default from live provider scan</text>
    <text x="586" y="103" fill="#047857" font-size="9.5" font-weight="700">/dashboard/rightsizing?provider=oci</text>

    <rect x="204" y="142" width="156" height="104" rx="13" fill="#ffffff" filter="url(#shadow)"/>
    <rect x="222" y="160" width="38" height="38" rx="10" fill="#dbeafe"/>
    <text x="241" y="185" fill="#1d4ed8" font-size="22" font-weight="900" text-anchor="middle">111</text>
    <text x="222" y="217" fill="#0f172a" font-size="12" font-weight="800">Advisor findings</text>
    <text x="222" y="233" fill="#64748b" font-size="9.5">854 resources represented</text>

    <rect x="378" y="142" width="156" height="104" rx="13" fill="#ffffff" filter="url(#shadow)"/>
    <rect x="396" y="160" width="38" height="38" rx="10" fill="#dcfce7"/>
    <text x="415" y="185" fill="#166534" font-size="16" font-weight="900" text-anchor="middle">$</text>
    <text x="396" y="217" fill="#0f172a" font-size="20" font-weight="900">$13.2K</text>
    <text x="396" y="233" fill="#64748b" font-size="9.5">advisor savings per month</text>

    <rect x="552" y="142" width="156" height="104" rx="13" fill="#ffffff" filter="url(#shadow)"/>
    <rect x="570" y="160" width="38" height="38" rx="10" fill="#fee2e2"/>
    <text x="589" y="185" fill="#dc2626" font-size="21" font-weight="900" text-anchor="middle">57</text>
    <text x="570" y="217" fill="#0f172a" font-size="12" font-weight="800">Storage cleanup</text>
    <text x="570" y="233" fill="#64748b" font-size="9.5">$5.8K/mo opportunity</text>

    <rect x="724" y="142" width="156" height="104" rx="13" fill="#ffffff" filter="url(#shadow)"/>
    <rect x="742" y="160" width="38" height="38" rx="10" fill="#fef3c7"/>
    <text x="761" y="185" fill="#b45309" font-size="21" font-weight="900" text-anchor="middle">285</text>
    <text x="742" y="217" fill="#0f172a" font-size="12" font-weight="800">Unattached volumes</text>
    <text x="742" y="233" fill="#64748b" font-size="9.5">block, boot, disk cleanup</text>

    <rect x="204" y="274" width="676" height="220" rx="14" fill="#ffffff" filter="url(#shadow)"/>
    <text x="226" y="302" fill="#0f172a" font-size="13" font-weight="800">Provider-native findings table</text>
    <text x="226" y="318" fill="#64748b" font-size="9.5">Live OCI rows replace the old empty panel.</text>
    <line x1="226" y1="334" x2="858" y2="334" stroke="#e2e8f0"/>
    <text x="226" y="356" fill="#64748b" font-size="8.8" font-weight="800">RECOMMENDATION</text>
    <text x="548" y="356" fill="#64748b" font-size="8.8" font-weight="800">CATEGORY</text>
    <text x="662" y="356" fill="#64748b" font-size="8.8" font-weight="800">SAVINGS</text>
    <text x="790" y="356" fill="#64748b" font-size="8.8" font-weight="800">STATUS</text>
    <rect x="226" y="370" width="632" height="36" rx="9" fill="#f8fafc"/>
    <text x="240" y="391" fill="#0f172a" font-size="10.5" font-weight="800">Right-size flexible shapes using observed utilization</text>
    <text x="240" y="402" fill="#64748b" font-size="8.2">live provider recommendations</text>
    <rect x="548" y="379" width="70" height="18" rx="6" fill="#dbeafe"/><text x="583" y="392" fill="#1d4ed8" font-size="8.5" font-weight="800" text-anchor="middle">Compute</text>
    <text x="662" y="392" fill="#166534" font-size="10.5" font-weight="900">$7,270</text>
    <rect x="790" y="379" width="54" height="18" rx="6" fill="#dcfce7"/><text x="817" y="392" fill="#166534" font-size="8.5" font-weight="800" text-anchor="middle">Active</text>
    <rect x="226" y="416" width="632" height="36" rx="9" fill="#f8fafc"/>
    <text x="240" y="437" fill="#0f172a" font-size="10.5" font-weight="800">Delete unattached storage resources</text>
    <text x="240" y="448" fill="#64748b" font-size="8.2">live provider recommendations</text>
    <rect x="548" y="425" width="70" height="18" rx="6" fill="#fee2e2"/><text x="583" y="438" fill="#b91c1c" font-size="8.5" font-weight="800" text-anchor="middle">Storage</text>
    <text x="662" y="438" fill="#166534" font-size="10.5" font-weight="900">$2,644</text>
    <rect x="790" y="425" width="54" height="18" rx="6" fill="#dcfce7"/><text x="817" y="438" fill="#166534" font-size="8.5" font-weight="800" text-anchor="middle">Active</text>
    <rect x="226" y="462" width="632" height="20" rx="7" fill="#eff6ff"/>
    <text x="542" y="476" fill="#1d4ed8" font-size="9" font-weight="800" text-anchor="middle">AWS, Azure, and GCP populate here after credentials are configured</text>
  </g>

  <g class="screen3">
    <rect x="204" y="78" width="676" height="42" rx="12" fill="#eff6ff" stroke="#bfdbfe" filter="url(#smallShadow)"/>
    <text x="224" y="103" fill="#1e40af" font-size="11" font-weight="800">Action Ledger: open → planned → approved → executed → verified, owner, realized savings, CSV export.</text>
    <circle class="flow1" cx="780" cy="99" r="4" fill="#2563eb"/>
    <circle class="flow2" cx="806" cy="99" r="4" fill="#22c55e"/>
    <circle class="flow3" cx="832" cy="99" r="4" fill="#f59e0b"/>

    <rect x="204" y="144" width="158" height="100" rx="13" fill="#ffffff" filter="url(#shadow)"/>
    <text x="224" y="169" fill="#64748b" font-size="8.5" font-weight="800">LEDGER ACTIONS</text>
    <text x="224" y="201" fill="#0f172a" font-size="31" font-weight="900">150</text>
    <text x="224" y="224" fill="#1d4ed8" font-size="10" font-weight="800">open execution queue</text>
    <rect x="384" y="144" width="158" height="100" rx="13" fill="#ffffff" filter="url(#shadow)"/>
    <text x="404" y="169" fill="#64748b" font-size="8.5" font-weight="800">PLANNED SAVINGS</text>
    <text x="404" y="201" fill="#0f172a" font-size="26" font-weight="900">$284.4K</text>
    <text x="404" y="224" fill="#166534" font-size="10" font-weight="800">per month</text>
    <rect x="564" y="144" width="158" height="100" rx="13" fill="#ffffff" filter="url(#shadow)"/>
    <text x="584" y="169" fill="#64748b" font-size="8.5" font-weight="800">REALIZED</text>
    <text x="584" y="201" fill="#0f172a" font-size="26" font-weight="900">$0.00</text>
    <text x="584" y="224" fill="#92400e" font-size="10" font-weight="800">awaiting completion</text>
    <rect x="744" y="144" width="136" height="100" rx="13" fill="#ffffff" filter="url(#shadow)"/>
    <text x="764" y="169" fill="#64748b" font-size="8.5" font-weight="800">VARIANCE</text>
    <text x="764" y="201" fill="#0f172a" font-size="25" font-weight="900">-$284K</text>
    <text x="764" y="224" fill="#b45309" font-size="10" font-weight="800">planned less realized</text>

    <rect x="204" y="274" width="676" height="218" rx="14" fill="#ffffff" filter="url(#shadow)"/>
    <text x="226" y="302" fill="#0f172a" font-size="13" font-weight="800">Execution ledger rows</text>
    <line x1="226" y1="318" x2="858" y2="318" stroke="#e2e8f0"/>
    <text x="226" y="340" fill="#64748b" font-size="8.7" font-weight="800">ACTION</text>
    <text x="508" y="340" fill="#64748b" font-size="8.7" font-weight="800">STATUS</text>
    <text x="626" y="340" fill="#64748b" font-size="8.7" font-weight="800">OWNER</text>
    <text x="748" y="340" fill="#64748b" font-size="8.7" font-weight="800">PLANNED</text>
    <rect x="226" y="354" width="632" height="36" rx="9" fill="#f8fafc"/>
    <text x="240" y="375" fill="#0f172a" font-size="10.2" font-weight="800">OCI Compute service opportunity</text>
    <text x="240" y="386" fill="#64748b" font-size="8.2">source: live provider recommendations</text>
    <rect x="508" y="363" width="58" height="18" rx="6" fill="#fef3c7"/><text x="537" y="376" fill="#92400e" font-size="8.5" font-weight="800" text-anchor="middle">open</text>
    <text x="626" y="376" fill="#475569" font-size="9.5">Unassigned</text>
    <text x="748" y="376" fill="#166534" font-size="10.5" font-weight="900">$7,270</text>
    <rect x="226" y="402" width="632" height="36" rx="9" fill="#f8fafc"/>
    <text x="240" y="423" fill="#0f172a" font-size="10.2" font-weight="800">Storage cleanup finding</text>
    <text x="240" y="434" fill="#64748b" font-size="8.2">source: lifecycle ledger</text>
    <rect x="508" y="411" width="58" height="18" rx="6" fill="#dbeafe"/><text x="537" y="424" fill="#1d4ed8" font-size="8.5" font-weight="800" text-anchor="middle">planned</text>
    <text x="626" y="424" fill="#475569" font-size="9.5">Unassigned</text>
    <text x="748" y="424" fill="#166534" font-size="10.5" font-weight="900">$2,644</text>
    <rect x="226" y="454" width="632" height="20" rx="7" fill="#ecfdf5"/>
    <text x="542" y="468" fill="#166534" font-size="9" font-weight="800" text-anchor="middle">Lifecycle status filter, owner, realized savings, variance, and CSV export now wired end-to-end</text>
  </g>

  <g class="screen4">
    <rect x="204" y="78" width="676" height="42" rx="12" fill="#fff7ed" stroke="#fed7aa" filter="url(#smallShadow)"/>
    <text x="224" y="103" fill="#92400e" font-size="11" font-weight="800">Control tower: tag quality, decision-grade actions, federation, advisor chat auth, OCI cost report ingestion.</text>

    <rect x="204" y="144" width="158" height="100" rx="13" fill="#ffffff" filter="url(#shadow)"/>
    <text x="224" y="169" fill="#64748b" font-size="8.5" font-weight="800">TAG QUALITY</text>
    <text x="224" y="201" fill="#0f172a" font-size="27" font-weight="900">live</text>
    <text x="224" y="224" fill="#1d4ed8" font-size="10" font-weight="800">team, env, app, cost center</text>
    <rect x="384" y="144" width="158" height="100" rx="13" fill="#ffffff" filter="url(#shadow)"/>
    <text x="404" y="169" fill="#64748b" font-size="8.5" font-weight="800">DECISION-GRADE</text>
    <text x="404" y="201" fill="#0f172a" font-size="27" font-weight="900">45s</text>
    <text x="404" y="224" fill="#166534" font-size="10" font-weight="800">analytics timeout aligned</text>
    <rect x="564" y="144" width="158" height="100" rx="13" fill="#ffffff" filter="url(#shadow)"/>
    <text x="584" y="169" fill="#64748b" font-size="8.5" font-weight="800">ADVISOR CHAT</text>
    <text x="584" y="201" fill="#0f172a" font-size="26" font-weight="900">auth</text>
    <text x="584" y="224" fill="#92400e" font-size="10" font-weight="800">session reaches telemetry</text>
    <rect x="744" y="144" width="136" height="100" rx="13" fill="#ffffff" filter="url(#shadow)"/>
    <text x="764" y="169" fill="#64748b" font-size="8.5" font-weight="800">FEDERATION</text>
    <text x="764" y="201" fill="#0f172a" font-size="25" font-weight="900">rollup</text>
    <text x="764" y="224" fill="#1d4ed8" font-size="10" font-weight="800">multi-account cost tree</text>

    <rect x="204" y="274" width="676" height="218" rx="14" fill="#ffffff" filter="url(#shadow)"/>
    <text x="226" y="302" fill="#0f172a" font-size="13" font-weight="800">Authenticated advisor telemetry path</text>
    <line x1="226" y1="318" x2="858" y2="318" stroke="#e2e8f0"/>
    <rect x="226" y="344" width="130" height="48" rx="12" fill="#eff6ff"/>
    <text x="291" y="364" fill="#1d4ed8" font-size="10" font-weight="900" text-anchor="middle">Browser session</text>
    <text x="291" y="379" fill="#64748b" font-size="8.5" text-anchor="middle">cookie or bearer</text>
    <path d="M356 368 C376 368 388 368 408 368" stroke="#94a3b8" stroke-width="2" fill="none"/>
    <circle class="flow1" cx="370" cy="368" r="3" fill="#2563eb"/>
    <rect x="408" y="344" width="130" height="48" rx="12" fill="#fff7ed"/>
    <text x="473" y="364" fill="#92400e" font-size="10" font-weight="900" text-anchor="middle">/api/ai/chat</text>
    <text x="473" y="379" fill="#64748b" font-size="8.5" text-anchor="middle">request-scoped headers</text>
    <path d="M538 368 C558 368 570 368 590 368" stroke="#94a3b8" stroke-width="2" fill="none"/>
    <circle class="flow2" cx="554" cy="368" r="3" fill="#22c55e"/>
    <rect x="590" y="344" width="130" height="48" rx="12" fill="#ecfdf5"/>
    <text x="655" y="364" fill="#166534" font-size="10" font-weight="900" text-anchor="middle">FastAPI telemetry</text>
    <text x="655" y="379" fill="#64748b" font-size="8.5" text-anchor="middle">cost, RAG, rightsizing</text>
    <path d="M720 368 C740 368 752 368 772 368" stroke="#94a3b8" stroke-width="2" fill="none"/>
    <circle class="flow3" cx="738" cy="368" r="3" fill="#f59e0b"/>
    <rect x="772" y="344" width="86" height="48" rx="12" fill="#f8fafc"/>
    <text x="815" y="364" fill="#0f172a" font-size="10" font-weight="900" text-anchor="middle">Answer</text>
    <text x="815" y="379" fill="#64748b" font-size="8.5" text-anchor="middle">grounded</text>

    <rect x="226" y="420" width="190" height="50" rx="12" fill="#f0fdf4"/>
    <text x="246" y="443" fill="#166534" font-size="11" font-weight="900">Decision ranking</text>
    <text x="246" y="459" fill="#475569" font-size="9.5">no early 10s aborts</text>
    <rect x="454" y="420" width="190" height="50" rx="12" fill="#eff6ff"/>
    <text x="474" y="443" fill="#1d4ed8" font-size="11" font-weight="900">Advisor Conversation</text>
    <text x="474" y="459" fill="#475569" font-size="9.5">uses signed session context</text>
    <rect x="682" y="420" width="176" height="50" rx="12" fill="#fff7ed"/>
    <text x="702" y="443" fill="#92400e" font-size="11" font-weight="900">OCI Cost Reports</text>
    <text x="702" y="459" fill="#475569" font-size="9.5">bling namespace, monthly summaries</text>
  </g>
</g>
<rect width="900" height="540" rx="18" fill="none" stroke="#cbd5e1" stroke-width="1.5"/>
</svg>
